<svg preserveAspectRatio="xMidYMid meet" data-bbox="50.001 55.002 207.995 36.311" xmlns="http://www.w3.org/2000/svg" viewBox="50.001 55.002 207.995 36.311" height="145" width="308" data-type="color" role="presentation" aria-hidden="true" aria-label="">
    <g>
        <g clip-path="url(#5c8c50a1-e643-4b3d-b463-c9c28b2b0a47_comp-m1uvl9aj__item1)">
            <path fill="#C2C2C2" d="M71.519 91.312c-.028-.018-.055-.05-.084-.055-.643-.061-1.287-.102-1.927-.18-.79-.095-1.583-.189-2.364-.341-1.296-.258-2.597-.51-3.868-.861-1.2-.33-2.375-.759-3.544-1.192-.685-.255-1.341-.592-2.002-.91-.656-.317-1.12-.183-1.457.466-.322.618-.465 1.285-.536 1.986h-5.553V77.622h4.786c.139 0 .237 0 .296.173.501 1.444 1.27 2.718 2.462 3.701.831.688 1.642 1.41 2.528 2.02 1.26.868 2.676 1.436 4.148 1.84 1.113.308 2.234.607 3.368.825.866.169 1.754.235 2.635.294.91.062 1.82.082 2.731.084.8 0 1.604-.018 2.4-.086 1.452-.123 2.905-.271 4.31-.686.945-.278 1.87-.615 2.633-1.277.681-.593 1.039-1.312 1.064-2.244.03-1.086-.479-1.78-1.371-2.28-.861-.478-1.8-.74-2.75-.952q-1.801-.4-3.616-.735c-.882-.162-1.775-.265-2.66-.41-.969-.157-1.932-.34-2.9-.5-.863-.143-1.731-.268-2.594-.41-.781-.127-1.563-.266-2.344-.393-.831-.137-1.667-.26-2.498-.401-.584-.1-1.166-.203-1.743-.332-1.059-.237-2.123-.46-3.168-.754-1.594-.447-3.118-1.07-4.505-1.993-1.253-.834-2.216-1.927-2.797-3.312-.307-.733-.51-1.515-.533-2.325-.011-.404-.096-.811-.052-1.208.073-.676.16-1.362.344-2.015.758-2.683 2.59-4.499 4.938-5.835.936-.533 1.938-.97 2.942-1.365 1.629-.637 3.33-1.03 5.063-1.273a69 69 0 0 1 2.715-.34c.654-.065 1.31-.088 1.966-.106 1.104-.03 2.209-.06 3.316-.053.75.005 1.503.037 2.248.114.986.1 1.965.25 2.947.392 1.394.203 2.738.578 4.061 1.064a22 22 0 0 1 3.373 1.571c.226.13.47.273.72.305.506.069.818-.118.986-.558a4.5 4.5 0 0 0 .223-.94c.044-.285.037-.576.055-.882h5.425v12.204H86.78c-.435 0-.428 0-.533-.417-.232-.911-.642-1.738-1.296-2.417-1.74-1.808-3.676-3.343-6.045-4.28a27.5 27.5 0 0 0-4.576-1.375c-.742-.153-1.503-.23-2.259-.29-.88-.07-1.767-.143-2.646-.109-2.135.085-4.246.358-6.27 1.091-1.126.408-2.192.92-2.991 1.85-.435.506-.734 1.098-.645 1.774.103.781.53 1.412 1.205 1.824.538.328 1.1.631 1.683.866 1.242.496 2.544.779 3.86 1 .613.102 1.22.241 1.832.335.727.109 1.458.184 2.186.282.504.068 1.003.162 1.506.23.49.066.98.114 1.469.175.549.071 1.098.155 1.647.226.615.08 1.232.137 1.847.228.667.098 1.33.223 1.993.341.735.13 1.476.244 2.207.404q1.57.34 3.13.737c1.799.456 3.525 1.098 5.121 2.055 1.43.856 2.64 1.936 3.4 3.453.52 1.038.723 2.14.72 3.298-.004 1.822-.41 3.523-1.414 5.063-1.025 1.571-2.437 2.703-4.067 3.587-.97.526-1.998.913-3.041 1.273-1.415.488-2.865.806-4.334 1.034-1.09.169-2.19.25-3.287.358-.558.054-1.12.08-1.679.123-.038.002-.075.034-.114.05h-3.871z" data-color="1"></path>
            <path fill="#C2C2C2" d="M165.914 66.814c0 .824-.006 1.649-.006 2.473q-.001 7.278.004 14.554c0 .3.032.61.1.905.212.906.916 1.277 1.736 1.437.546.107 1.114.12 1.672.13 1.072.018 2.143.004 3.216.004h.293v4.173h-20.555v-4.173h.287c1.253-.002 2.505.014 3.756-.018a6.3 6.3 0 0 0 1.428-.219c.893-.232 1.432-.754 1.448-1.872.021-1.266.053-2.53.055-3.797q.012-8.485-.005-16.97c0-.41-.077-.827-.168-1.23-.132-.59-.56-.902-1.116-1.091-.754-.255-1.533-.296-2.316-.305-1.016-.012-2.03-.003-3.046-.003h-.323v-4.236h.257q8.638-.002 17.276.007a.68.68 0 0 1 .417.168q7.468 6.974 14.925 13.958c2.082 1.947 4.159 3.897 6.241 5.846.05.048.104.091.202.176v-1.19l.057-8.636c.009-1.22.037-2.444.03-3.665 0-.346-.075-.699-.157-1.038-.139-.576-.556-.893-1.096-1.08-.788-.27-1.606-.303-2.428-.31-.893-.009-1.783 0-2.676 0h-.298v-4.227h19.774v4.21c-.084.004-.166.015-.248.015-1.1.011-2.201-.004-3.301.041a4.6 4.6 0 0 0-1.371.276c-.899.33-1.232 1.054-1.232 1.977.005 5.93 0 11.864 0 17.795 0 3.088-.002 6.177.005 9.267 0 .267-.06.36-.347.356-2.416-.03-4.835-.044-7.251-.069a.45.45 0 0 1-.276-.125 4247 4247 0 0 1-6.755-6.382l-7.125-6.737-9.046-8.55q-.993-.934-1.989-1.866l-.057-.03v.049z" data-color="1"></path>
            <path fill="#C2C2C2" d="M99.68 73.597c.058-.859.113-1.795.188-2.731.091-1.116.365-2.196.745-3.241 1.143-3.152 3.134-5.667 5.849-7.623a21.6 21.6 0 0 1 4.694-2.558c.884-.35 1.777-.697 2.69-.957 1.061-.303 2.148-.537 3.232-.751q1.45-.288 2.917-.456c.884-.1 1.775-.134 2.663-.178 1.034-.047 2.07-.097 3.107-.1.874 0 1.749.046 2.621.1.8.053 1.599.121 2.394.226 1.665.216 3.309.528 4.935.957 3.519.924 6.774 2.375 9.58 4.728 2.036 1.708 3.615 3.762 4.564 6.261.426 1.123.759 2.278.841 3.485.059.897.132 1.801.105 2.699a17 17 0 0 1-.481 3.576c-.982 3.992-3.252 7.083-6.632 9.39a21 21 0 0 1-3.581 1.952 28.6 28.6 0 0 1-4.71 1.558 47 47 0 0 1-3.241.629c-.713.118-1.439.175-2.161.236a74 74 0 0 1-5.202.255c-.829.01-1.658.012-2.485-.031-.772-.04-1.54-.137-2.31-.217-.694-.073-1.394-.127-2.081-.239a25 25 0 0 1-2.198-.453c-1.096-.278-2.201-.547-3.269-.911-2.813-.959-5.409-2.319-7.625-4.332-1.795-1.63-3.161-3.555-4.047-5.817a13.7 13.7 0 0 1-.86-3.25c-.09-.704-.156-1.41-.243-2.203zm25.502 13.046c.574-.043 1.352-.091 2.127-.166.619-.062 1.25-.103 1.852-.255.89-.226 1.767-.518 2.632-.827 1.608-.574 2.97-1.533 4.116-2.788 1.373-1.506 2.221-3.28 2.679-5.264.252-1.093.387-2.195.448-3.309.073-1.307-.038-2.606-.228-3.902a14 14 0 0 0-.845-3.175c-1.398-3.516-3.924-5.805-7.568-6.885a17 17 0 0 0-3.626-.64 19.8 19.8 0 0 0-4.555.2c-1.169.188-2.305.474-3.403.919-1.795.724-3.355 1.783-4.603 3.273-1.075 1.284-1.815 2.742-2.296 4.345-.412 1.374-.583 2.777-.653 4.198-.028.572.015 1.148.052 1.72.041.642.059 1.29.18 1.922.2 1.043.435 2.08.84 3.072.597 1.462 1.399 2.788 2.517 3.909 1.38 1.382 3.036 2.3 4.892 2.897 1 .32 2.025.505 3.057.64.717.093 1.451.077 2.382.118z" data-color="1"></path>
            <path fill="#C2C2C2" d="M208.742 60.696v-4.354h22.46v4.373h-.296c-.811.02-1.624.018-2.433.075-.462.032-.94.13-1.148.644a.6.6 0 0 0-.011.333c.15.544.572.909.931 1.303 1.977 2.17 3.975 4.322 5.954 6.488.761.832 1.67.8 2.392.025 2.166-2.318 4.345-4.623 6.498-6.953.262-.282.421-.676.574-1.04.148-.354-.046-.677-.422-.741a10 10 0 0 0-1.191-.13c-.585-.02-1.171-.004-1.77-.004v-4.38h17.716v4.368c-.085.005-.167.012-.249.012-.911.004-1.822.01-2.731.009-1.109 0-2.086.364-2.849 1.159-.872.906-1.676 1.877-2.514 2.817-1.369 1.533-2.724 3.075-4.114 4.59-2.298 2.505-4.619 4.988-6.926 7.484a.5.5 0 0 0-.141.314c0 2.349-.005 4.699.018 7.047.007.64.326 1.132.884 1.458a2.8 2.8 0 0 0 1.344.369c1.551.038 3.102.04 4.651.057h.327v4.213h-24.8V86.02h.268c1.29 0 2.581.016 3.87-.007.672-.011 1.351-.043 1.984-.326.631-.28 1.013-.747 1.038-1.458.03-.904.06-1.81.064-2.714.012-1.449.007-2.9-.004-4.348a.64.64 0 0 0-.148-.397c-3.961-4.384-7.929-8.764-11.892-13.146-.462-.512-.89-1.057-1.341-1.58-.547-.634-1.255-.984-2.073-1.087-.667-.084-1.341-.123-2.013-.166-.629-.041-1.258-.06-1.911-.09z" data-color="1"></path>
        </g>
        <defs fill="none">
            <clipPath id="5c8c50a1-e643-4b3d-b463-c9c28b2b0a47_comp-m1uvl9aj__item1">
                <path fill="#ffffff" d="M258 55v36.312H50V55z"></path>
            </clipPath>
        </defs>
    </g>
</svg>